<svg id="visual" viewBox="0 0 1920 1080" width="1920" height="1080" xmlns="http://www.w3.org/2000/svg" xmlns:xlink="http://www.w3.org/1999/xlink" version="1.1"><g><g transform="translate(650 586)"><path d="M212.2 -74.3C239.2 14.3 200.8 118.9 128.4 169.8C56 220.7 -50.2 218.1 -124.8 165.4C-199.3 112.8 -242 10.1 -216 -77.1C-189.9 -164.4 -94.9 -236.2 -1.2 -235.8C92.6 -235.5 185.1 -162.8 212.2 -74.3Z" fill="none" stroke="#e2ae03" stroke-width="20"></path></g><g transform="translate(1450 462)"><path d="M98.5 -29.1C113.8 15 102.7 70.6 67.2 97.7C31.6 124.7 -28.4 123.2 -64.6 95.4C-100.7 67.6 -113 13.5 -98.2 -29.9C-83.5 -73.2 -41.7 -105.8 -0.1 -105.8C41.6 -105.7 83.2 -73.1 98.5 -29.1Z" fill="none" stroke="#e2ae03" stroke-width="20"></path></g><g transform="translate(160 9)"><path d="M148.3 -46.4C169.2 16.1 147.2 94.2 97.2 129.5C47.2 164.9 -30.8 157.4 -82.5 118.6C-134.2 79.9 -159.6 9.9 -141.4 -48.8C-123.3 -107.5 -61.6 -154.9 1 -155.2C63.7 -155.6 127.4 -108.8 148.3 -46.4Z" fill="none" stroke="#e2ae03" stroke-width="20"></path></g><g transform="translate(1864 1021)"><path d="M50.1 -17C57 5 49.2 31 31.9 43.6C14.5 56.2 -12.5 55.3 -29.8 42.4C-47 29.5 -54.6 4.7 -48 -16.9C-41.4 -38.5 -20.7 -56.9 0.4 -57C21.6 -57.2 43.2 -39.1 50.1 -17Z" fill="none" stroke="#e2ae03" stroke-width="20"></path></g><g transform="translate(74 1013)"><path d="M52.7 -18.6C59.2 2.8 49 28.2 30.3 41.8C11.6 55.4 -15.7 57.3 -33.8 44.6C-52 31.9 -60.9 4.6 -53.8 -17.8C-46.6 -40.1 -23.3 -57.5 -0.1 -57.5C23.1 -57.4 46.2 -40 52.7 -18.6Z" stroke="#e2ae03" fill="none" stroke-width="20"></path></g><g transform="translate(1130 1040)"><path d="M148 -56.4C168.5 15 145.8 92.2 89.9 135.6C34 179.1 -55.1 188.8 -112.8 148.5C-170.4 108.2 -196.7 17.9 -172.7 -58.4C-148.6 -134.7 -74.3 -197 -5.3 -195.3C63.7 -193.6 127.5 -127.8 148 -56.4Z" stroke="#e2ae03" fill="none" stroke-width="20"></path></g></g></svg>