<svg id="visual" viewBox="0 0 1920 1080" width="1920" height="1080" xmlns="http://www.w3.org/2000/svg" xmlns:xlink="http://www.w3.org/1999/xlink" version="1.1"><path d="M0 864L64 888.8C128 913.7 256 963.3 384 983C512 1002.7 640 992.3 768 957.5C896 922.7 1024 863.3 1152 836.8C1280 810.3 1408 816.7 1536 830.7C1664 844.7 1792 866.3 1856 877.2L1920 888L1920 1081L1856 1081C1792 1081 1664 1081 1536 1081C1408 1081 1280 1081 1152 1081C1024 1081 896 1081 768 1081C640 1081 512 1081 384 1081C256 1081 128 1081 64 1081L0 1081Z" fill="#e2ae03" stroke-linecap="round" stroke-linejoin="miter"></path></svg>